<svg width="79" height="71" fill="none" xmlns="http://www.w3.org/2000/svg"><path fill-rule="evenodd" clip-rule="evenodd" d="M23.547 36.13l-2.556 1.246a22.25 22.25 0 01-1.395-18.814l2.928 1.405a2.07 2.07 0 001.79-3.733l-2.89-1.387c3.593-5.862 9.811-9.948 17.006-10.611V7.35a2.07 2.07 0 104.14 0V4.234c2.467.225 4.853.853 7.12 1.875a2.07 2.07 0 001.703-3.773A26.299 26.299 0 0040.5 0c-7.08 0-13.733 2.756-18.74 7.762C16.756 12.767 14 19.422 14 26.5c0 5.23 1.552 10.318 4.49 14.711a2.07 2.07 0 002.629.71l4.244-2.07a2.07 2.07 0 10-1.816-3.722zM56.414 7.71a2.07 2.07 0 012.877 2.876c-2.112 3.098-12.73 18.636-14.4 20.306a6.192 6.192 0 01-4.391 1.816 6.192 6.192 0 01-4.392-1.816 6.218 6.218 0 010-8.784c1.67-1.67 17.208-12.287 20.306-14.399zM39.036 27.963c.807.807 2.12.807 2.928 0 .64-.649 3.787-5.06 7.56-10.488-5.428 3.773-9.84 6.92-10.488 7.56a2.072 2.072 0 000 2.928zM.8 69.9c0 .067.033.1.1.1l3.58-.02c.786-.013 1.493-.207 2.12-.58a4.254 4.254 0 001.5-1.5c.373-.64.56-1.347.56-2.12v-5.74c0-.733-.18-1.4-.54-2a4.034 4.034 0 00-1.46-1.46 3.679 3.679 0 00-2-.52l-3.74.02c-.054 0-.08.027-.08.08L.8 69.9zm3.68-2.36H3.24l.02-9.06 1.4-.02c.426-.013.793.14 1.1.46.32.307.48.673.48 1.1v5.76c0 .48-.174.893-.52 1.24a1.65 1.65 0 01-1.24.52zm5.753 2.36c0 .067.027.1.08.1h2.26c.054 0 .08-.033.08-.1l.02-5.88h1.32c.494 0 .907.18 1.24.54.347.347.52.76.52 1.24v4.14c0 .04.027.06.08.06h2.26c.067 0 .1-.033.1-.1l-.02-4.1c0-1.08-.36-2.02-1.08-2.82.16-.133.34-.333.54-.6.2-.28.374-.613.52-1 .147-.4.22-.847.22-1.34 0-.747-.18-1.413-.54-2a3.927 3.927 0 00-1.46-1.42c-.6-.36-1.26-.54-1.98-.54h-4.04c-.053 0-.08.027-.08.08l-.04 13.74zm4.16-8.28h-1.72v-3.14h1.72a1.5 1.5 0 011.1.46c.32.307.48.673.48 1.1 0 .44-.16.813-.48 1.12-.32.307-.686.46-1.1.46zm5.489 8.28c0 .067.033.1.1.1h2.26c.053 0 .08-.033.08-.1l-.02-13.74c0-.053-.027-.08-.08-.08h-2.24c-.053 0-.08.027-.08.08l-.02 13.74zm6.34 0c.012.067.046.1.1.1h2.42c.052 0 .086-.033.1-.1l2.72-13.74c.012-.053-.014-.08-.08-.08h-2.24c-.054 0-.088.027-.1.08l-1.6 9.16-1.64-9.16c-.014-.053-.048-.08-.1-.08h-2.26c-.068 0-.094.027-.08.08l2.76 13.74zm6.511 0c0 .067.027.1.08.1h6.46c.054 0 .08-.027.08-.08v-2.28c0-.067-.026-.1-.08-.1h-4.12v-3.5h4.12c.054 0 .08-.027.08-.08l-.02-2.26c0-.053-.026-.08-.08-.08h-4.1V58.5h4.1c.054 0 .08-.027.08-.08v-2.24c0-.067-.026-.1-.08-.1h-6.42c-.053 0-.08.027-.08.08l-.02 13.74zm11.368 0c0 .067.026.1.08.1h2.26c.053 0 .08-.033.08-.1l.02-10.2 2.08 3.04 2.1-3.04.02 10.2c0 .067.026.1.08.1h2.26c.053 0 .08-.033.08-.1l-.04-13.74c0-.053-.027-.08-.08-.08h-2.46c-.054 0-.1.027-.14.08l-1.82 2.64-1.82-2.64c-.04-.053-.087-.08-.14-.08h-2.44c-.054 0-.08.027-.08.08L44.1 69.9zm12.462-.24c.6.36 1.26.54 1.98.54s1.373-.18 1.96-.54c.6-.373 1.073-.86 1.42-1.46.36-.613.54-1.287.54-2.02l-.02-6.34c0-.733-.18-1.4-.54-2a4.026 4.026 0 00-1.4-1.44 3.673 3.673 0 00-1.96-.54c-.707 0-1.36.18-1.96.54-.6.36-1.08.84-1.44 1.44-.347.6-.52 1.267-.52 2l-.02 6.34c0 .733.18 1.407.54 2.02.36.6.833 1.087 1.42 1.46zm3.02-2.36c-.294.32-.64.48-1.04.48-.414 0-.767-.153-1.06-.46a1.63 1.63 0 01-.44-1.14v-6.34c0-.453.146-.827.44-1.12.293-.307.646-.46 1.06-.46.426 0 .78.153 1.06.46.28.307.42.68.42 1.12l.02 6.34c0 .413-.154.787-.46 1.12zm6.067 2.6c0 .067.026.1.08.1h2.26c.053 0 .08-.033.08-.1l-.02-11.4h2.62c.053 0 .08-.033.08-.1v-2.24c0-.053-.034-.08-.1-.08h-7.6c-.054 0-.08.027-.08.08l-.02 2.24c0 .067.033.1.1.1h2.6v11.4zm7.358-.24c.6.36 1.26.54 1.98.54s1.373-.18 1.96-.54c.6-.373 1.073-.86 1.42-1.46.36-.613.54-1.287.54-2.02l-.02-6.34c0-.733-.18-1.4-.54-2a4.025 4.025 0 00-1.4-1.44 3.673 3.673 0 00-1.96-.54c-.707 0-1.36.18-1.96.54-.6.36-1.08.84-1.44 1.44-.347.6-.52 1.267-.52 2l-.02 6.34c0 .733.18 1.407.54 2.02.36.6.833 1.087 1.42 1.46zm3.02-2.36c-.293.32-.64.48-1.04.48-.413 0-.767-.153-1.06-.46a1.63 1.63 0 01-.44-1.14v-6.34c0-.453.147-.827.44-1.12.293-.307.647-.46 1.06-.46.427 0 .78.153 1.06.46.28.307.42.68.42 1.12l.02 6.34c0 .413-.153.787-.46 1.12zM61.925 14.572a2.07 2.07 0 012.74 1.035A26.296 26.296 0 0167 26.5c0 5.23-1.553 10.318-4.49 14.711a2.07 2.07 0 01-2.611.719l-4.348-2.07a2.07 2.07 0 011.78-3.739L60 37.391A22.202 22.202 0 0062.86 26.5c0-3.203-.663-6.295-1.97-9.19a2.07 2.07 0 011.035-2.738z" fill="#2F3035"/></svg>